<?xml version="1.0" encoding="UTF-8" standalone="no"?>
<!DOCTYPE svg PUBLIC "-//W3C//DTD SVG 1.1//EN" "http://www.w3.org/Graphics/SVG/1.1/DTD/svg11.dtd">
<svg width="100%" height="100%" viewBox="0 0 1800 600" version="1.1" xmlns="http://www.w3.org/2000/svg" xmlns:xlink="http://www.w3.org/1999/xlink" xml:space="preserve" xmlns:serif="http://www.serif.com/" style="fill-rule:evenodd;clip-rule:evenodd;stroke-linejoin:round;stroke-miterlimit:2;">
    <g transform="matrix(1,0,0,1,-300,-600)">
        <path d="Mnan,nanCnan,nan nan,nan nan,nanCnan,nan nan,nan nan,nanCnan,nan nan,nan nan,nanCnan,nan nan,nan nan,nanCnan,nan nan,nan nan,nanCnan,nan nan,nan nan,nanCnan,nan nan,nan nan,nanCnan,nan nan,nan nan,nanZ" style="fill:white;fill-opacity:0;"/>
    </g>
    <g transform="matrix(1,0,0,1,-281.585,-565.084)">
        <g transform="matrix(0.123607,0,0,0.123607,303.668,627.4)">
            <g>
                <rect x="0" y="17.647" width="423.529" height="423.529" style="fill:rgb(19,41,76);fill-opacity:0;"/>
                <g>
                    <g>
                        <path d="M3296.47,17.647L1807.06,17.647C1748.58,17.647 1701.18,65.054 1701.18,123.529L1701.18,567.522C1666.59,558.615 1631.01,554.111 1595.29,554.118C1361.76,554.118 1171.77,744.113 1171.77,977.647C1171.77,1211.18 1361.76,1401.18 1595.29,1401.18C1631.32,1401.18 1666.88,1396.61 1701.18,1387.77L1701.18,1718.82L1196.58,1718.82C1138.49,1718.83 1090.7,1766.62 1090.7,1824.71C1090.7,1850.78 1100.33,1875.95 1117.72,1895.37C1152.51,1934.12 1171.77,1984.39 1171.77,2036.47C1171.77,2153.24 1076.77,2248.24 960,2248.24C843.233,2248.24 748.235,2153.24 748.235,2036.47C748.235,1984.38 767.428,1934.26 802.278,1895.37C819.675,1875.95 829.303,1850.78 829.303,1824.71C829.303,1766.62 781.508,1718.83 723.424,1718.82L105.882,1718.82C105.873,1718.82 105.864,1718.82 105.854,1718.82C47.784,1718.82 -0,1766.61 -0,1824.68C-0,1824.69 -0,1824.7 0,1824.71L0,3314.12C0,3489.27 142.496,3631.76 317.647,3631.76L3296.47,3631.76C3471.62,3631.76 3614.12,3489.27 3614.12,3314.12L3614.12,335.294C3614.12,160.144 3471.62,17.647 3296.47,17.647ZM1701.18,2907.85L1701.18,3420L317.647,3420C259.264,3420 211.765,3372.5 211.765,3314.12L211.765,1929.88L549.911,1929.88C540.978,1964.71 536.462,2000.52 536.471,2036.47C536.471,2270.01 726.466,2460 960,2460C1193.53,2460 1383.53,2270.01 1383.53,2036.47C1383.53,2000.44 1378.95,1964.89 1370.09,1930.59L1701.18,1930.59L1701.18,2435.2C1701.18,2527.27 1810.29,2574.51 1877.72,2514.05C1916.47,2479.26 1966.75,2460 2018.82,2460C2135.59,2460 2230.59,2555 2230.59,2671.76C2230.59,2788.53 2135.59,2883.53 2018.82,2883.53C1966.86,2883.53 1916.68,2864.36 1877.97,2829.7C1810.53,2768.85 1701.61,2816.14 1701.18,2907.85ZM3402.35,3314.12C3402.35,3372.5 3354.85,3420 3296.47,3420L1912.94,3420L1912.94,3081.85C1947.53,3090.78 1983.1,3095.3 2018.82,3095.29C2252.36,3095.29 2442.35,2905.3 2442.35,2671.76C2442.35,2438.23 2252.36,2248.24 2018.82,2248.24C1982.8,2248.24 1947.25,2252.81 1912.94,2261.68L1912.94,1930.59L2417.54,1930.59C2475.62,1930.59 2523.42,1882.79 2523.42,1824.71C2523.42,1798.64 2513.79,1773.46 2496.39,1754.05C2461.61,1715.3 2442.35,1665.02 2442.35,1612.94C2442.35,1496.17 2537.35,1401.18 2654.12,1401.18C2770.89,1401.18 2865.88,1496.17 2865.88,1612.94C2865.88,1665.04 2846.69,1715.15 2811.84,1754.05C2794.44,1773.46 2784.82,1798.64 2784.82,1824.71C2784.82,1882.79 2832.61,1930.59 2890.69,1930.59L3402.35,1930.59L3402.35,3314.12ZM3402.35,1718.82L3064.21,1718.82C3073.14,1684.24 3077.66,1648.66 3077.65,1612.94C3077.65,1379.41 2887.65,1189.41 2654.12,1189.41C2420.58,1189.41 2230.59,1379.41 2230.59,1612.94C2230.59,1648.97 2235.16,1684.52 2244.03,1718.82L1912.94,1718.82L1912.94,1214.41C1912.94,1124.77 1805.84,1073.49 1736.44,1135.52C1697.65,1170.25 1647.36,1189.45 1595.29,1189.41C1478.53,1189.41 1383.53,1094.41 1383.53,977.647C1383.53,860.88 1478.53,765.882 1595.29,765.882C1647.36,765.842 1697.65,785.044 1736.44,819.776C1803.66,879.875 1912.94,833.421 1912.94,740.88L1912.94,229.412L3296.47,229.412C3354.85,229.412 3402.35,276.911 3402.35,335.294L3402.35,1718.82Z" style="fill:rgb(19,41,76);fill-rule:nonzero;"/>
                    </g>
                </g>
            </g>
        </g>
        <g transform="matrix(1,0,0,1,810.035,772.144)">
            <g transform="matrix(1,0,0,1,-40.1409,51.8784)">
                <g>
                    <g>
                        <path d="M22.306,-94.8C24.894,-94.8 27.176,-93.859 29.153,-91.976C31.129,-90.094 32.118,-87.765 32.118,-84.988L32.118,7.835C32.118,10.612 31.106,12.941 29.082,14.824C27.059,16.706 24.706,17.647 22.024,17.647C19.012,17.647 16.588,16.706 14.753,14.824C12.965,12.941 12.071,10.612 12.071,7.835L12.071,-84.988C12.071,-87.765 13.035,-90.094 14.965,-91.976C16.894,-93.859 19.341,-94.8 22.306,-94.8ZM93.459,-94.8C96.471,-94.8 98.871,-93.859 100.659,-91.976C102.494,-90.094 103.412,-87.765 103.412,-84.988L103.412,7.835C103.412,10.612 102.471,12.941 100.588,14.824C98.706,16.706 96.235,17.647 93.176,17.647C90.588,17.647 88.306,16.706 86.329,14.824C84.353,12.941 83.365,10.612 83.365,7.835L83.365,-84.988C83.365,-87.765 84.376,-90.094 86.4,-91.976C88.424,-93.859 90.776,-94.8 93.459,-94.8ZM21.812,-29.576L21.812,-48L93.459,-48L93.459,-29.576L21.812,-29.576ZM144.071,-58.447L144.071,7.835C144.071,10.612 143.153,12.941 141.318,14.824C139.482,16.706 137.176,17.647 134.4,17.647C131.624,17.647 129.318,16.706 127.482,14.824C125.694,12.941 124.8,10.612 124.8,7.835L124.8,-58.447C124.8,-61.271 125.694,-63.6 127.482,-65.435C129.318,-67.318 131.624,-68.259 134.4,-68.259C137.176,-68.259 139.482,-67.318 141.318,-65.435C143.153,-63.6 144.071,-61.271 144.071,-58.447ZM134.259,-78.706C130.635,-78.706 128.071,-79.294 126.565,-80.471C125.059,-81.647 124.306,-83.741 124.306,-86.753L124.306,-89.788C124.306,-92.894 125.129,-95.012 126.776,-96.141C128.424,-97.271 130.965,-97.835 134.4,-97.835C138.165,-97.835 140.8,-97.247 142.306,-96.071C143.812,-94.894 144.565,-92.8 144.565,-89.788L144.565,-86.753C144.565,-83.647 143.741,-81.529 142.094,-80.4C140.494,-79.271 137.882,-78.706 134.259,-78.706ZM209.718,-69.882C217.671,-69.882 223.694,-68.212 227.788,-64.871C231.929,-61.576 234.776,-57.176 236.329,-51.671C237.882,-46.165 238.659,-40.024 238.659,-33.247L238.659,7.835C238.659,10.612 237.741,12.941 235.906,14.824C234.071,16.706 231.765,17.647 228.988,17.647C226.212,17.647 223.906,16.706 222.071,14.824C220.282,12.941 219.388,10.612 219.388,7.835L219.388,-33.247C219.388,-36.776 218.918,-39.976 217.976,-42.847C217.082,-45.671 215.459,-47.929 213.106,-49.624C210.753,-51.365 207.388,-52.235 203.012,-52.235C198.729,-52.235 195.106,-51.365 192.141,-49.624C189.224,-47.929 186.988,-45.671 185.435,-42.847C183.882,-39.976 183.106,-36.776 183.106,-33.247L183.106,7.835C183.106,10.612 182.188,12.941 180.353,14.824C178.518,16.706 176.212,17.647 173.435,17.647C170.659,17.647 168.353,16.706 166.518,14.824C164.729,12.941 163.835,10.612 163.835,7.835L163.835,-58.447C163.835,-61.271 164.729,-63.6 166.518,-65.435C168.353,-67.318 170.659,-68.259 173.435,-68.259C176.212,-68.259 178.518,-67.318 180.353,-65.435C182.188,-63.6 183.106,-61.271 183.106,-58.447L183.106,-51.6L180.635,-52.024C181.624,-53.859 183.035,-55.812 184.871,-57.882C186.659,-60 188.8,-61.953 191.294,-63.741C193.741,-65.576 196.518,-67.059 199.624,-68.188C202.729,-69.318 206.094,-69.882 209.718,-69.882ZM260.471,-66.635L298.518,-66.635C301.106,-66.635 303.247,-65.788 304.941,-64.094C306.682,-62.4 307.553,-60.259 307.553,-57.671C307.553,-55.224 306.682,-53.153 304.941,-51.459C303.247,-49.812 301.106,-48.988 298.518,-48.988L260.471,-48.988C257.882,-48.988 255.741,-49.859 254.047,-51.6C252.353,-53.294 251.506,-55.435 251.506,-58.024C251.506,-60.471 252.353,-62.518 254.047,-64.165C255.741,-65.812 257.882,-66.635 260.471,-66.635ZM277.694,-86.753C280.471,-86.753 282.729,-85.812 284.471,-83.929C286.259,-82.047 287.153,-79.718 287.153,-76.941L287.153,-5.506C287.153,-4 287.435,-2.753 288,-1.765C288.612,-0.824 289.412,-0.141 290.4,0.282C291.435,0.706 292.541,0.918 293.718,0.918C294.988,0.918 296.165,0.682 297.247,0.212C298.329,-0.259 299.553,-0.494 300.918,-0.494C302.424,-0.494 303.788,0.188 305.012,1.553C306.282,2.965 306.918,4.894 306.918,7.341C306.918,10.353 305.271,12.824 301.976,14.753C298.729,16.682 295.224,17.647 291.459,17.647C289.2,17.647 286.706,17.459 283.976,17.082C281.247,16.706 278.682,15.788 276.282,14.329C273.882,12.918 271.882,10.706 270.282,7.694C268.682,4.682 267.882,0.565 267.882,-4.659L267.882,-76.941C267.882,-79.718 268.824,-82.047 270.706,-83.929C272.541,-85.812 274.871,-86.753 277.694,-86.753ZM406.941,-25.2C406.941,-16.447 404.988,-8.729 401.082,-2.047C397.176,4.635 391.929,9.859 385.341,13.624C378.753,17.388 371.388,19.271 363.247,19.271C355.106,19.271 347.741,17.388 341.153,13.624C334.565,9.859 329.318,4.635 325.412,-2.047C321.506,-8.729 319.553,-16.447 319.553,-25.2C319.553,-34 321.506,-41.741 325.412,-48.424C329.318,-55.106 334.565,-60.353 341.153,-64.165C347.741,-67.976 355.106,-69.882 363.247,-69.882C371.388,-69.882 378.753,-67.976 385.341,-64.165C391.929,-60.353 397.176,-55.106 401.082,-48.424C404.988,-41.741 406.941,-34 406.941,-25.2ZM387.671,-25.2C387.671,-30.659 386.565,-35.412 384.353,-39.459C382.188,-43.459 379.247,-46.588 375.529,-48.847C371.859,-51.106 367.765,-52.235 363.247,-52.235C358.776,-52.235 354.682,-51.106 350.965,-48.847C347.294,-46.588 344.353,-43.459 342.141,-39.459C339.929,-35.412 338.824,-30.659 338.824,-25.2C338.824,-19.882 339.929,-15.2 342.141,-11.153C344.353,-7.153 347.294,-4.024 350.965,-1.765C354.682,0.447 358.776,1.553 363.247,1.553C367.765,1.553 371.859,0.447 375.529,-1.765C379.247,-4.024 382.188,-7.153 384.353,-11.153C386.565,-15.2 387.671,-19.882 387.671,-25.2ZM468.918,-69.882C476.824,-69.882 482.847,-68.212 486.988,-64.871C491.129,-61.576 493.976,-57.176 495.529,-51.671C497.082,-46.165 497.859,-40.024 497.859,-33.247L497.859,7.835C497.859,10.612 496.941,12.941 495.106,14.824C493.271,16.706 490.965,17.647 488.188,17.647C485.412,17.647 483.106,16.706 481.271,14.824C479.482,12.941 478.588,10.612 478.588,7.835L478.588,-33.247C478.588,-36.776 478.118,-39.976 477.176,-42.847C476.282,-45.671 474.659,-47.929 472.306,-49.624C469.953,-51.365 466.588,-52.235 462.212,-52.235C457.929,-52.235 454.306,-51.365 451.341,-49.624C448.376,-47.929 446.118,-45.671 444.565,-42.847C443.012,-39.976 442.235,-36.776 442.235,-33.247L442.235,7.835C442.235,10.612 441.341,12.941 439.553,14.824C437.718,16.706 435.412,17.647 432.635,17.647C429.859,17.647 427.553,16.706 425.718,14.824C423.882,12.941 422.965,10.612 422.965,7.835L422.965,-58.447C422.965,-61.271 423.882,-63.6 425.718,-65.435C427.553,-67.318 429.859,-68.259 432.635,-68.259C435.412,-68.259 437.718,-67.318 439.553,-65.435C441.341,-63.6 442.235,-61.271 442.235,-58.447L442.235,-51.6L439.835,-52.024C440.824,-53.859 442.212,-55.812 444,-57.882C445.835,-60 447.976,-61.953 450.424,-63.741C452.918,-65.576 455.718,-67.059 458.824,-68.188C461.929,-69.318 465.294,-69.882 468.918,-69.882ZM601.412,19.271C593.929,19.271 587.176,18.329 581.153,16.447C575.176,14.565 569.459,11.271 564,6.565C562.588,5.388 561.506,4.047 560.753,2.541C560,1.035 559.624,-0.471 559.624,-1.976C559.624,-4.424 560.518,-6.588 562.306,-8.471C564.094,-10.353 566.306,-11.294 568.941,-11.294C571.012,-11.294 572.847,-10.635 574.447,-9.318C578.494,-6.024 582.541,-3.506 586.588,-1.765C590.588,-0.071 595.529,0.776 601.412,0.776C605.365,0.776 609.012,0.165 612.353,-1.059C615.647,-2.282 618.306,-3.953 620.329,-6.071C622.4,-8.141 623.435,-10.518 623.435,-13.2C623.435,-16.4 622.471,-19.129 620.541,-21.388C618.612,-23.647 615.671,-25.553 611.718,-27.106C607.718,-28.659 602.682,-29.859 596.612,-30.706C590.824,-31.553 585.741,-32.871 581.365,-34.659C576.941,-36.4 573.271,-38.635 570.353,-41.365C567.388,-44.094 565.153,-47.318 563.647,-51.035C562.141,-54.706 561.388,-58.847 561.388,-63.459C561.388,-70.424 563.2,-76.353 566.824,-81.247C570.4,-86.188 575.247,-89.953 581.365,-92.541C587.435,-95.082 594.165,-96.353 601.553,-96.353C608.518,-96.353 614.965,-95.318 620.894,-93.247C626.871,-91.176 631.718,-88.518 635.435,-85.271C638.541,-82.824 640.094,-80 640.094,-76.8C640.094,-74.447 639.2,-72.306 637.412,-70.376C635.576,-68.447 633.435,-67.482 630.988,-67.482C629.341,-67.482 627.882,-67.953 626.612,-68.894C624.918,-70.4 622.612,-71.835 619.694,-73.2C616.824,-74.518 613.788,-75.624 610.588,-76.518C607.341,-77.459 604.329,-77.929 601.553,-77.929C596.941,-77.929 593.059,-77.341 589.906,-76.165C586.753,-74.988 584.376,-73.365 582.776,-71.294C581.176,-69.271 580.376,-66.918 580.376,-64.235C580.376,-61.035 581.318,-58.4 583.2,-56.329C585.082,-54.212 587.788,-52.541 591.318,-51.318C594.847,-50.094 599.059,-48.988 603.953,-48C610.4,-46.824 616.047,-45.435 620.894,-43.835C625.788,-42.235 629.835,-40.188 633.035,-37.694C636.235,-35.153 638.659,-32 640.306,-28.235C641.906,-24.424 642.706,-19.788 642.706,-14.329C642.706,-7.365 640.776,-1.365 636.918,3.671C633.059,8.706 628,12.565 621.741,15.247C615.482,17.929 608.706,19.271 601.412,19.271ZM742.094,-25.2C742.094,-16.447 740.141,-8.729 736.235,-2.047C732.329,4.635 727.082,9.859 720.494,13.624C713.906,17.388 706.541,19.271 698.4,19.271C690.259,19.271 682.894,17.388 676.306,13.624C669.718,9.859 664.471,4.635 660.565,-2.047C656.659,-8.729 654.706,-16.447 654.706,-25.2C654.706,-34 656.659,-41.741 660.565,-48.424C664.471,-55.106 669.718,-60.353 676.306,-64.165C682.894,-67.976 690.259,-69.882 698.4,-69.882C706.541,-69.882 713.906,-67.976 720.494,-64.165C727.082,-60.353 732.329,-55.106 736.235,-48.424C740.141,-41.741 742.094,-34 742.094,-25.2ZM722.824,-25.2C722.824,-30.659 721.718,-35.412 719.506,-39.459C717.341,-43.459 714.4,-46.588 710.682,-48.847C707.012,-51.106 702.918,-52.235 698.4,-52.235C693.929,-52.235 689.835,-51.106 686.118,-48.847C682.447,-46.588 679.506,-43.459 677.294,-39.459C675.082,-35.412 673.976,-30.659 673.976,-25.2C673.976,-19.882 675.082,-15.2 677.294,-11.153C679.506,-7.153 682.447,-4.024 686.118,-1.765C689.835,0.447 693.929,1.553 698.4,1.553C702.918,1.553 707.012,0.447 710.682,-1.765C714.4,-4.024 717.341,-7.153 719.506,-11.153C721.718,-15.2 722.824,-19.882 722.824,-25.2ZM802.306,-101.224C804.659,-101.224 806.965,-100.894 809.224,-100.235C811.482,-99.576 813.341,-98.541 814.8,-97.129C816.306,-95.671 817.059,-93.765 817.059,-91.412C817.059,-88.729 816.282,-86.612 814.729,-85.059C813.176,-83.506 811.388,-82.729 809.365,-82.729C808.424,-82.729 806.988,-82.965 805.059,-83.435C803.129,-83.906 801.247,-84.141 799.412,-84.141C796.729,-84.141 794.659,-83.553 793.2,-82.376C791.788,-81.2 790.8,-79.835 790.235,-78.282C789.718,-76.729 789.459,-75.365 789.459,-74.188L789.459,7.835C789.459,10.612 788.541,12.941 786.706,14.824C784.918,16.706 782.635,17.647 779.859,17.647C777.035,17.647 774.729,16.706 772.941,14.824C771.106,12.941 770.188,10.612 770.188,7.835L770.188,-74.047C770.188,-81.671 772.871,-88.094 778.235,-93.318C783.6,-98.588 791.624,-101.224 802.306,-101.224ZM761.506,-66.635L804.071,-66.635C806.659,-66.635 808.8,-65.812 810.494,-64.165C812.188,-62.518 813.035,-60.4 813.035,-57.812C813.035,-55.271 812.188,-53.153 810.494,-51.459C808.8,-49.812 806.659,-48.988 804.071,-48.988L761.506,-48.988C758.965,-48.988 756.824,-49.812 755.082,-51.459C753.388,-53.153 752.541,-55.271 752.541,-57.812C752.541,-60.4 753.388,-62.518 755.082,-64.165C756.824,-65.812 758.965,-66.635 761.506,-66.635ZM826.588,-66.635L864.635,-66.635C867.176,-66.635 869.318,-65.788 871.059,-64.094C872.753,-62.4 873.6,-60.259 873.6,-57.671C873.6,-55.224 872.753,-53.153 871.059,-51.459C869.318,-49.812 867.176,-48.988 864.635,-48.988L826.588,-48.988C824,-48.988 821.859,-49.859 820.165,-51.6C818.424,-53.294 817.553,-55.435 817.553,-58.024C817.553,-60.471 818.424,-62.518 820.165,-64.165C821.859,-65.812 824,-66.635 826.588,-66.635ZM843.741,-86.753C846.518,-86.753 848.8,-85.812 850.588,-83.929C852.329,-82.047 853.2,-79.718 853.2,-76.941L853.2,-5.506C853.2,-4 853.506,-2.753 854.118,-1.765C854.682,-0.824 855.482,-0.141 856.518,0.282C857.506,0.706 858.588,0.918 859.765,0.918C861.082,0.918 862.282,0.682 863.365,0.212C864.4,-0.259 865.624,-0.494 867.035,-0.494C868.541,-0.494 869.906,0.188 871.129,1.553C872.353,2.965 872.965,4.894 872.965,7.341C872.965,10.353 871.341,12.824 868.094,14.753C864.8,16.682 861.294,17.647 857.576,17.647C855.318,17.647 852.824,17.459 850.094,17.082C847.365,16.706 844.8,15.788 842.4,14.329C839.953,12.918 837.929,10.706 836.329,7.694C834.729,4.682 833.929,0.565 833.929,-4.659L833.929,-76.941C833.929,-79.718 834.871,-82.047 836.753,-83.929C838.635,-85.812 840.965,-86.753 843.741,-86.753ZM996.635,-68.259C999.082,-68.259 1001.22,-67.318 1003.06,-65.435C1004.85,-63.6 1005.74,-61.224 1005.74,-58.306C1005.74,-57.553 1005.69,-56.894 1005.6,-56.329C1005.51,-55.718 1005.34,-55.153 1005.11,-54.635L980.541,11.576C979.788,13.694 978.447,15.318 976.518,16.447C974.588,17.576 972.565,17.976 970.447,17.647C966.824,17.412 964.094,15.388 962.259,11.576L946.376,-34.235L950.541,-34.094L935.576,11.576C933.788,15.388 931.059,17.412 927.388,17.647C925.365,17.976 923.365,17.576 921.388,16.447C919.412,15.318 918.047,13.694 917.294,11.576L892.729,-54.635C892.306,-55.812 892.094,-57.035 892.094,-58.306C892.094,-60.894 892.941,-63.2 894.635,-65.224C896.376,-67.247 898.729,-68.259 901.694,-68.259C903.718,-68.259 905.553,-67.788 907.2,-66.847C908.8,-65.859 909.906,-64.306 910.518,-62.188L930,-9.459L925.976,-9.812L940.588,-49.482C942.282,-53.435 945.224,-55.412 949.412,-55.412C951.765,-55.412 953.553,-54.918 954.776,-53.929C956,-52.894 956.988,-51.412 957.741,-49.482L972.353,-9.812L967.553,-9.176L987.318,-62.188C988.588,-66.235 991.694,-68.259 996.635,-68.259ZM1091.22,-69.882C1094,-69.882 1096.31,-68.965 1098.14,-67.129C1099.93,-65.341 1100.82,-62.988 1100.82,-60.071L1100.82,7.835C1100.82,10.612 1099.93,12.941 1098.14,14.824C1096.31,16.706 1094,17.647 1091.22,17.647C1088.45,17.647 1086.14,16.706 1084.31,14.824C1082.47,12.941 1081.55,10.612 1081.55,7.835L1081.55,0L1085.08,1.412C1085.08,2.824 1084.33,4.518 1082.82,6.494C1081.37,8.471 1079.34,10.424 1076.75,12.353C1074.16,14.282 1071.15,15.906 1067.72,17.224C1064.24,18.588 1060.45,19.271 1056.35,19.271C1048.96,19.271 1042.28,17.365 1036.31,13.553C1030.28,9.741 1025.53,4.494 1022.05,-2.188C1018.57,-8.871 1016.82,-16.541 1016.82,-25.2C1016.82,-34 1018.57,-41.741 1022.05,-48.424C1025.53,-55.106 1030.21,-60.353 1036.09,-64.165C1042.02,-67.976 1048.57,-69.882 1055.72,-69.882C1060.33,-69.882 1064.57,-69.176 1068.42,-67.765C1072.28,-66.4 1075.62,-64.635 1078.45,-62.471C1081.27,-60.353 1083.46,-58.188 1085.01,-55.976C1086.57,-53.765 1087.34,-51.929 1087.34,-50.471L1081.55,-48.353L1081.55,-60.071C1081.55,-62.847 1082.47,-65.176 1084.31,-67.059C1086.14,-68.941 1088.45,-69.882 1091.22,-69.882ZM1058.75,1.553C1063.46,1.553 1067.58,0.376 1071.11,-1.976C1074.63,-4.329 1077.41,-7.529 1079.43,-11.576C1081.41,-15.671 1082.4,-20.212 1082.4,-25.2C1082.4,-30.376 1081.41,-34.988 1079.43,-39.035C1077.41,-43.129 1074.63,-46.353 1071.11,-48.706C1067.58,-51.059 1063.46,-52.235 1058.75,-52.235C1054.14,-52.235 1050.07,-51.059 1046.54,-48.706C1043.01,-46.353 1040.26,-43.129 1038.28,-39.035C1036.31,-34.988 1035.32,-30.376 1035.32,-25.2C1035.32,-20.212 1036.31,-15.671 1038.28,-11.576C1040.26,-7.529 1043.01,-4.329 1046.54,-1.976C1050.07,0.376 1054.14,1.553 1058.75,1.553ZM1131.39,17.647C1128.57,17.647 1126.26,16.706 1124.47,14.824C1122.63,12.941 1121.72,10.612 1121.72,7.835L1121.72,-58.447C1121.72,-61.271 1122.63,-63.6 1124.47,-65.435C1126.26,-67.318 1128.57,-68.259 1131.39,-68.259C1134.16,-68.259 1136.45,-67.318 1138.24,-65.435C1140.07,-63.6 1140.99,-61.271 1140.99,-58.447L1140.99,-43.412L1139.86,-54.141C1141.04,-56.729 1142.57,-59.012 1144.45,-60.988C1146.33,-62.965 1148.45,-64.612 1150.8,-65.929C1153.15,-67.294 1155.67,-68.282 1158.35,-68.894C1161.04,-69.553 1163.72,-69.882 1166.4,-69.882C1169.6,-69.882 1172.28,-68.965 1174.45,-67.129C1176.66,-65.341 1177.77,-63.2 1177.77,-60.706C1177.77,-57.176 1176.85,-54.635 1175.01,-53.082C1173.22,-51.529 1171.25,-50.753 1169.08,-50.753C1167.06,-50.753 1165.22,-51.129 1163.58,-51.882C1161.88,-52.635 1159.98,-53.012 1157.86,-53.012C1155.93,-53.012 1153.98,-52.565 1152,-51.671C1150.02,-50.729 1148.21,-49.294 1146.57,-47.365C1144.87,-45.435 1143.53,-43.059 1142.54,-40.235C1141.51,-37.412 1140.99,-34.071 1140.99,-30.212L1140.99,7.835C1140.99,10.612 1140.07,12.941 1138.24,14.824C1136.45,16.706 1134.16,17.647 1131.39,17.647ZM1227.53,19.271C1218.45,19.271 1210.57,17.365 1203.88,13.553C1197.2,9.741 1192.05,4.565 1188.42,-1.976C1184.85,-8.471 1183.06,-15.859 1183.06,-24.141C1183.06,-33.741 1185.01,-41.953 1188.92,-48.776C1192.82,-55.553 1197.93,-60.776 1204.24,-64.447C1210.59,-68.071 1217.29,-69.882 1224.35,-69.882C1229.81,-69.882 1234.96,-68.753 1239.81,-66.494C1244.71,-64.235 1249.01,-61.153 1252.73,-57.247C1256.49,-53.341 1259.48,-48.824 1261.69,-43.694C1263.86,-38.565 1264.94,-33.106 1264.94,-27.318C1264.85,-24.729 1263.84,-22.635 1261.91,-21.035C1259.98,-19.435 1257.74,-18.635 1255.2,-18.635L1193.86,-18.635L1188.99,-34.729L1247.93,-34.729L1244.4,-31.482L1244.4,-35.859C1244.21,-38.965 1243.13,-41.741 1241.15,-44.188C1239.13,-46.635 1236.66,-48.588 1233.74,-50.047C1230.78,-51.506 1227.65,-52.235 1224.35,-52.235C1221.15,-52.235 1218.14,-51.788 1215.32,-50.894C1212.54,-50.047 1210.14,-48.612 1208.12,-46.588C1206.09,-44.565 1204.49,-41.835 1203.32,-38.4C1202.14,-34.965 1201.55,-30.635 1201.55,-25.412C1201.55,-19.624 1202.75,-14.729 1205.15,-10.729C1207.55,-6.682 1210.66,-3.624 1214.47,-1.553C1218.28,0.518 1222.33,1.553 1226.61,1.553C1230.57,1.553 1233.72,1.247 1236.07,0.635C1238.42,-0.024 1240.33,-0.8 1241.79,-1.694C1243.2,-2.588 1244.49,-3.365 1245.67,-4.024C1247.6,-5.012 1249.43,-5.506 1251.18,-5.506C1253.53,-5.506 1255.48,-4.682 1257.04,-3.035C1258.59,-1.435 1259.37,0.424 1259.37,2.541C1259.37,5.459 1257.86,8.094 1254.85,10.447C1252.07,12.8 1248.16,14.847 1243.13,16.588C1238.09,18.376 1232.89,19.271 1227.53,19.271Z" style="fill:rgb(233,74,40);fill-rule:nonzero;"/>
                    </g>
                </g>
            </g>
            <g transform="matrix(1,0,0,1,-23.4793,96.7142)">
                <rect x="0" y="42.918" width="137.118" height="7.059" style="fill:rgb(19,41,76);"/>
                <rect x="1045.16" y="42.918" width="137.118" height="7.059" style="fill:rgb(19,41,76);"/>
                <g transform="matrix(1,0,0,1,154.736,56.5835)">
                    <g>
                        <path d="M7.765,5.506L3.529,10.447C6,12.988 8.894,14.965 12.212,16.447C15.529,17.929 19.129,18.635 23.012,18.635C25.976,18.635 28.588,18.282 30.918,17.435C33.247,16.588 35.224,15.459 36.847,14.047C38.471,12.635 39.741,10.941 40.588,9.035C41.506,7.059 41.929,5.012 41.929,2.824C41.929,0.776 41.647,-0.988 41.012,-2.541C40.447,-4.094 39.671,-5.435 38.612,-6.635C37.624,-7.765 36.424,-8.824 35.012,-9.671C33.6,-10.518 32.047,-11.294 30.494,-12L22.588,-15.388C21.459,-15.812 20.4,-16.306 19.341,-16.871C18.212,-17.435 17.224,-18 16.376,-18.706C15.459,-19.412 14.753,-20.259 14.188,-21.176C13.624,-22.094 13.412,-23.294 13.412,-24.635C13.412,-27.176 14.329,-29.153 16.235,-30.565C18.141,-32.047 20.612,-32.753 23.718,-32.753C26.329,-32.753 28.659,-32.259 30.706,-31.341C32.753,-30.424 34.659,-29.153 36.353,-27.529L40.165,-32.047C38.188,-34.094 35.788,-35.788 32.965,-37.059C30.141,-38.329 27.035,-38.965 23.718,-38.965C21.176,-38.965 18.847,-38.541 16.729,-37.835C14.612,-37.129 12.776,-36.071 11.224,-34.729C9.671,-33.388 8.471,-31.835 7.553,-30.071C6.706,-28.235 6.282,-26.259 6.282,-24.212C6.282,-22.165 6.635,-20.4 7.271,-18.847C7.976,-17.294 8.824,-15.953 9.882,-14.824C11.012,-13.694 12.212,-12.706 13.553,-11.929C14.894,-11.153 16.235,-10.447 17.506,-9.882L25.482,-6.424C26.824,-5.788 28.024,-5.224 29.153,-4.659C30.282,-4.094 31.271,-3.459 32.047,-2.753C32.894,-2.047 33.529,-1.2 34.024,-0.212C34.518,0.776 34.729,1.976 34.729,3.388C34.729,6.141 33.741,8.329 31.694,9.953C29.647,11.647 26.824,12.494 23.153,12.494C20.259,12.494 17.435,11.859 14.753,10.588C12.071,9.318 9.741,7.624 7.765,5.506ZM73.341,18.635C76.871,18.635 80.047,18 82.941,16.659C85.906,15.247 88.376,13.341 90.494,10.8C92.612,8.329 94.235,5.294 95.435,1.694C96.565,-1.906 97.129,-5.929 97.129,-10.376C97.129,-14.824 96.565,-18.776 95.435,-22.306C94.235,-25.835 92.612,-28.8 90.494,-31.271C88.376,-33.741 85.906,-35.647 82.941,-36.918C80.047,-38.259 76.871,-38.965 73.341,-38.965C69.882,-38.965 66.635,-38.259 63.741,-36.988C60.847,-35.718 58.306,-33.812 56.259,-31.341C54.141,-28.871 52.518,-25.906 51.388,-22.376C50.188,-18.847 49.624,-14.824 49.624,-10.376C49.624,-5.929 50.188,-1.906 51.388,1.694C52.518,5.294 54.141,8.329 56.259,10.8C58.306,13.341 60.847,15.247 63.741,16.659C66.635,18 69.882,18.635 73.341,18.635ZM73.341,12.494C70.871,12.494 68.612,11.929 66.635,10.871C64.588,9.812 62.894,8.259 61.482,6.282C60,4.235 58.871,1.835 58.094,-0.918C57.318,-3.741 56.894,-6.918 56.894,-10.376C56.894,-13.835 57.318,-16.941 58.094,-19.694C58.871,-22.447 60,-24.847 61.482,-26.753C62.894,-28.659 64.588,-30.141 66.635,-31.2C68.612,-32.259 70.871,-32.753 73.341,-32.753C75.812,-32.753 78.071,-32.259 80.118,-31.2C82.094,-30.141 83.788,-28.659 85.271,-26.753C86.682,-24.847 87.812,-22.447 88.588,-19.694C89.365,-16.941 89.788,-13.835 89.788,-10.376C89.788,-6.918 89.365,-3.741 88.588,-0.918C87.812,1.835 86.682,4.235 85.271,6.282C83.788,8.259 82.094,9.812 80.118,10.871C78.071,11.929 75.812,12.494 73.341,12.494ZM109.129,-37.906L109.129,17.647L116.118,17.647L116.118,-7.271L137.294,-7.271L137.294,-13.2L116.118,-13.2L116.118,-31.976L141.106,-31.976L141.106,-37.906L109.129,-37.906ZM162.494,-31.976L162.494,17.647L169.553,17.647L169.553,-31.976L186.353,-31.976L186.353,-37.906L145.694,-37.906L145.694,-31.976L162.494,-31.976ZM190.659,-37.906L202.447,17.647L210.847,17.647L219.035,-15.812C219.529,-17.929 219.953,-20.047 220.447,-22.094C220.941,-24.212 221.365,-26.259 221.859,-28.447L222.212,-28.447C222.635,-26.259 223.059,-24.212 223.482,-22.094C223.906,-20.047 224.4,-17.929 224.894,-15.812L233.294,17.647L241.765,17.647L253.271,-37.906L246.494,-37.906L240.635,-7.694C240.071,-4.659 239.576,-1.694 239.012,1.271C238.518,4.235 238.024,7.2 237.529,10.306L237.176,10.306C236.471,7.2 235.835,4.235 235.129,1.2C234.494,-1.765 233.788,-4.729 233.082,-7.694L225.388,-37.906L218.965,-37.906L211.271,-7.694C210.635,-4.659 210,-1.694 209.294,1.271C208.659,4.235 207.953,7.2 207.388,10.306L207.035,10.306C206.541,7.2 205.976,4.235 205.412,1.271C204.847,-1.624 204.282,-4.659 203.788,-7.694L197.929,-37.906L190.659,-37.906ZM286.588,-4.941L269.859,-4.941L272.471,-13.412C273.529,-16.518 274.447,-19.624 275.365,-22.729C276.282,-25.765 277.129,-28.941 277.976,-32.188L278.329,-32.188C279.247,-28.941 280.165,-25.765 281.082,-22.729C281.929,-19.624 282.918,-16.518 283.906,-13.412L286.588,-4.941ZM288.353,0.706L293.576,17.647L301.129,17.647L282.353,-37.906L274.376,-37.906L255.529,17.647L262.729,17.647L268.094,0.706L288.353,0.706ZM316.024,-11.576L316.024,-32.259L325.341,-32.259C329.718,-32.259 333.035,-31.482 335.365,-30.071C337.694,-28.588 338.824,-25.976 338.824,-22.306C338.824,-18.706 337.694,-16.024 335.365,-14.259C333.035,-12.494 329.718,-11.576 325.341,-11.576L316.024,-11.576ZM339.529,17.647L347.435,17.647L333.388,-6.565C337.2,-7.553 340.235,-9.318 342.494,-11.929C344.753,-14.541 345.882,-18 345.882,-22.306C345.882,-25.2 345.388,-27.671 344.4,-29.647C343.482,-31.624 342.141,-33.176 340.376,-34.447C338.682,-35.718 336.635,-36.565 334.235,-37.129C331.835,-37.624 329.224,-37.906 326.4,-37.906L309.035,-37.906L309.035,17.647L316.024,17.647L316.024,-5.788L326.118,-5.788L339.529,17.647ZM358.235,-37.906L358.235,17.647L391.059,17.647L391.059,11.647L365.224,11.647L365.224,-8.541L386.329,-8.541L386.329,-14.541L365.224,-14.541L365.224,-31.976L390.212,-31.976L390.212,-37.906L358.235,-37.906ZM416.753,-10.165C416.753,-5.647 417.388,-1.553 418.588,2.047C419.788,5.576 421.482,8.612 423.671,11.082C425.859,13.553 428.4,15.388 431.365,16.729C434.329,18 437.576,18.635 441.035,18.635C444.635,18.635 447.812,17.929 450.565,16.518C453.318,15.106 455.788,13.129 457.976,10.588L454.024,6.282C452.188,8.259 450.282,9.812 448.306,10.871C446.329,11.929 443.929,12.494 441.247,12.494C438.565,12.494 436.165,11.929 434.047,10.871C431.929,9.812 430.165,8.259 428.682,6.282C427.2,4.306 426.071,1.906 425.294,-0.847C424.447,-3.671 424.024,-6.776 424.024,-10.306C424.024,-13.765 424.447,-16.871 425.294,-19.624C426.141,-22.376 427.341,-24.776 428.894,-26.682C430.376,-28.659 432.212,-30.141 434.4,-31.2C436.518,-32.259 438.918,-32.753 441.6,-32.753C443.929,-32.753 446.047,-32.259 447.812,-31.341C449.576,-30.424 451.2,-29.153 452.682,-27.6L456.635,-32.047C455.012,-33.882 452.894,-35.506 450.353,-36.847C447.812,-38.259 444.847,-38.965 441.459,-38.965C437.929,-38.965 434.612,-38.259 431.647,-36.918C428.612,-35.647 426,-33.741 423.812,-31.2C421.553,-28.729 419.859,-25.694 418.588,-22.165C417.388,-18.635 416.753,-14.612 416.753,-10.165ZM486.353,18.635C489.882,18.635 493.059,18 496.024,16.659C498.918,15.247 501.388,13.341 503.506,10.8C505.624,8.329 507.318,5.294 508.447,1.694C509.576,-1.906 510.212,-5.929 510.212,-10.376C510.212,-14.824 509.576,-18.776 508.447,-22.306C507.318,-25.835 505.624,-28.8 503.506,-31.271C501.388,-33.741 498.918,-35.647 496.024,-36.918C493.059,-38.259 489.882,-38.965 486.353,-38.965C482.894,-38.965 479.647,-38.259 476.753,-36.988C473.859,-35.718 471.388,-33.812 469.271,-31.341C467.153,-28.871 465.529,-25.906 464.4,-22.376C463.271,-18.847 462.635,-14.824 462.635,-10.376C462.635,-5.929 463.271,-1.906 464.4,1.694C465.529,5.294 467.153,8.329 469.271,10.8C471.388,13.341 473.859,15.247 476.753,16.659C479.647,18 482.894,18.635 486.353,18.635ZM486.353,12.494C483.882,12.494 481.624,11.929 479.647,10.871C477.671,9.812 475.906,8.259 474.494,6.282C473.012,4.235 471.953,1.835 471.106,-0.918C470.329,-3.741 469.976,-6.918 469.976,-10.376C469.976,-13.835 470.329,-16.941 471.106,-19.694C471.953,-22.447 473.012,-24.847 474.494,-26.753C475.906,-28.659 477.671,-30.141 479.647,-31.2C481.624,-32.259 483.882,-32.753 486.353,-32.753C488.894,-32.753 491.082,-32.259 493.129,-31.2C495.106,-30.141 496.871,-28.659 498.282,-26.753C499.694,-24.847 500.824,-22.447 501.6,-19.694C502.447,-16.941 502.8,-13.835 502.8,-10.376C502.8,-6.918 502.447,-3.741 501.6,-0.918C500.824,1.835 499.694,4.235 498.282,6.282C496.871,8.259 495.106,9.812 493.129,10.871C491.082,11.929 488.894,12.494 486.353,12.494ZM522.141,-37.906L522.141,17.647L528.847,17.647L528.847,-11.435C528.847,-14.329 528.706,-17.294 528.494,-20.188C528.353,-23.082 528.141,-25.976 527.859,-28.8L528.212,-28.8L534.212,-17.365L554.4,17.647L561.671,17.647L561.671,-37.906L554.965,-37.906L554.965,-9.176C554.965,-6.282 555.106,-3.318 555.318,-0.282C555.459,2.753 555.671,5.647 555.812,8.471L555.529,8.471L549.459,-3.035L529.412,-37.906L522.141,-37.906ZM577.129,5.506L572.894,10.447C575.294,12.988 578.188,14.965 581.506,16.447C584.824,17.929 588.424,18.635 592.376,18.635C595.271,18.635 597.882,18.282 600.212,17.435C602.541,16.588 604.518,15.459 606.141,14.047C607.765,12.635 609.035,10.941 609.953,9.035C610.8,7.059 611.224,5.012 611.224,2.824C611.224,0.776 610.941,-0.988 610.376,-2.541C609.741,-4.094 608.965,-5.435 607.906,-6.635C606.918,-7.765 605.718,-8.824 604.306,-9.671C602.894,-10.518 601.412,-11.294 599.788,-12L591.953,-15.388C590.824,-15.812 589.694,-16.306 588.635,-16.871C587.576,-17.435 586.588,-18 585.671,-18.706C584.753,-19.412 584.047,-20.259 583.482,-21.176C582.988,-22.094 582.706,-23.294 582.706,-24.635C582.706,-27.176 583.624,-29.153 585.529,-30.565C587.435,-32.047 589.906,-32.753 593.012,-32.753C595.624,-32.753 597.953,-32.259 600,-31.341C602.047,-30.424 603.953,-29.153 605.647,-27.529L609.459,-32.047C607.482,-34.094 605.082,-35.788 602.259,-37.059C599.435,-38.329 596.329,-38.965 593.012,-38.965C590.471,-38.965 588.141,-38.541 586.024,-37.835C583.906,-37.129 582.071,-36.071 580.518,-34.729C578.965,-33.388 577.765,-31.835 576.918,-30.071C576,-28.235 575.576,-26.259 575.576,-24.212C575.576,-22.165 575.929,-20.4 576.565,-18.847C577.271,-17.294 578.118,-15.953 579.247,-14.824C580.306,-13.694 581.506,-12.706 582.847,-11.929C584.188,-11.153 585.529,-10.447 586.871,-9.882L594.776,-6.424C596.118,-5.788 597.318,-5.224 598.447,-4.659C599.576,-4.094 600.565,-3.459 601.341,-2.753C602.188,-2.047 602.824,-1.2 603.318,-0.212C603.812,0.776 604.024,1.976 604.024,3.388C604.024,6.141 603.035,8.329 600.988,9.953C598.941,11.647 596.118,12.494 592.447,12.494C589.553,12.494 586.8,11.859 584.118,10.588C581.435,9.318 579.106,7.624 577.129,5.506ZM621.882,-37.906L621.882,-5.294C621.882,-0.847 622.447,2.894 623.435,5.929C624.424,9.035 625.835,11.506 627.6,13.341C629.435,15.247 631.553,16.588 633.953,17.435C636.424,18.282 639.106,18.635 641.929,18.635C644.753,18.635 647.365,18.282 649.765,17.435C652.235,16.588 654.282,15.247 656.118,13.341C657.882,11.506 659.294,9.035 660.282,5.929C661.271,2.894 661.835,-0.847 661.835,-5.294L661.835,-37.906L655.059,-37.906L655.059,-5.153C655.059,-1.835 654.706,0.988 654,3.247C653.365,5.506 652.376,7.341 651.247,8.682C650.047,10.024 648.635,11.012 647.082,11.576C645.459,12.212 643.765,12.494 641.929,12.494C640.094,12.494 638.4,12.212 636.847,11.576C635.224,11.012 633.882,10.024 632.682,8.682C631.553,7.341 630.635,5.506 629.929,3.247C629.294,0.988 628.941,-1.835 628.941,-5.153L628.941,-37.906L621.882,-37.906ZM676.8,-37.906L676.8,17.647L708.141,17.647L708.141,11.647L683.859,11.647L683.859,-37.906L676.8,-37.906ZM719.294,-31.976L719.294,17.647L726.424,17.647L726.424,-31.976L743.224,-31.976L743.224,-37.906L702.565,-37.906L702.565,-31.976L719.294,-31.976ZM753.176,-37.906L753.176,17.647L760.235,17.647L760.235,-37.906L753.176,-37.906ZM775.482,-37.906L775.482,17.647L782.188,17.647L782.188,-11.435C782.188,-14.329 782.047,-17.294 781.906,-20.188C781.694,-23.082 781.482,-25.976 781.271,-28.8L781.553,-28.8L787.624,-17.365L807.741,17.647L815.012,17.647L815.012,-37.906L808.376,-37.906L808.376,-9.176C808.376,-6.282 808.447,-3.318 808.659,-0.282C808.871,2.753 809.012,5.647 809.224,8.471L808.871,8.471L802.871,-3.035L782.753,-37.906L775.482,-37.906ZM827.082,-10.165C827.082,-5.647 827.718,-1.553 828.918,2.047C830.188,5.576 831.882,8.612 834.071,11.082C836.329,13.553 838.941,15.388 841.976,16.729C845.012,18 848.4,18.635 852.071,18.635C855.812,18.635 859.129,18.071 862.094,16.871C865.059,15.6 867.459,14.118 869.224,12.212L869.224,-11.153L851.012,-11.153L851.012,-5.294L862.8,-5.294L862.8,9.176C861.671,10.165 860.259,11.012 858.424,11.576C856.659,12.212 854.824,12.494 852.847,12.494C849.812,12.494 847.2,11.929 844.871,10.871C842.612,9.812 840.706,8.259 839.153,6.282C837.6,4.306 836.4,1.906 835.553,-0.847C834.776,-3.671 834.353,-6.776 834.353,-10.306C834.353,-13.765 834.776,-16.871 835.694,-19.624C836.541,-22.376 837.741,-24.776 839.365,-26.682C840.918,-28.659 842.824,-30.141 845.082,-31.2C847.341,-32.259 849.882,-32.753 852.706,-32.753C855.529,-32.753 857.859,-32.259 859.694,-31.271C861.529,-30.282 863.153,-29.082 864.565,-27.6L868.588,-32.047C866.965,-33.741 864.847,-35.365 862.235,-36.776C859.694,-38.188 856.518,-38.965 852.635,-38.965C848.894,-38.965 845.506,-38.259 842.4,-36.918C839.294,-35.647 836.612,-33.741 834.282,-31.2C832.024,-28.729 830.259,-25.694 828.988,-22.165C827.718,-18.635 827.082,-14.612 827.082,-10.165Z" style="fill:rgb(19,41,76);fill-rule:nonzero;"/>
                    </g>
                </g>
            </g>
        </g>
    </g>
</svg>
